<svg xmlns="http://www.w3.org/2000/svg" viewBox="0 0 300 360" fill="none" role="img" aria-label="J&amp;K Daycare logo">
  <defs>
    <filter id="jkshadow" x="-20%" y="-20%" width="140%" height="140%">
      <feDropShadow dx="0" dy="6" stdDeviation="7" flood-color="#212149" flood-opacity="0.16"/>
    </filter>
  </defs>
  <!-- Red buddy (happy) -->
  <g filter="url(#jkshadow)">
    <rect x="40" y="14" width="150" height="238" rx="40" fill="#f24150"/>
    <ellipse cx="90" cy="104" rx="27" ry="35" fill="#ffffff"/>
    <ellipse cx="150" cy="104" rx="27" ry="35" fill="#ffffff"/>
    <ellipse cx="94" cy="108" rx="17" ry="25" fill="#212149"/>
    <ellipse cx="146" cy="108" rx="17" ry="25" fill="#212149"/>
    <path d="M104 150 Q120 166 136 150" stroke="#212149" stroke-width="6" fill="none" stroke-linecap="round"/>
    <rect x="78" y="176" width="15" height="15" rx="3" transform="rotate(45 85 183)" fill="#fad306"/>
    <rect x="147" y="176" width="15" height="15" rx="3" transform="rotate(45 154 183)" fill="#fad306"/>
  </g>
  <!-- Sky buddy (>< ) -->
  <g filter="url(#jkshadow)">
    <rect x="176" y="150" width="120" height="120" rx="34" fill="#86cfe8"/>
    <path d="M206 190 L222 202 L206 214" stroke="#212149" stroke-width="6" fill="none" stroke-linecap="round" stroke-linejoin="round"/>
    <path d="M266 190 L250 202 L266 214" stroke="#212149" stroke-width="6" fill="none" stroke-linecap="round" stroke-linejoin="round"/>
    <circle cx="236" cy="234" r="8" fill="#f24150"/>
    <circle cx="204" cy="230" r="6" fill="#f5a25a" opacity="0.75"/>
    <circle cx="268" cy="230" r="6" fill="#f5a25a" opacity="0.75"/>
  </g>
  <!-- Cream buddy (neutral) -->
  <g filter="url(#jkshadow)">
    <rect x="16" y="232" width="168" height="120" rx="32" fill="#f6f1e8"/>
    <ellipse cx="74" cy="286" rx="21" ry="27" fill="#ffffff"/>
    <ellipse cx="128" cy="286" rx="21" ry="27" fill="#ffffff"/>
    <ellipse cx="74" cy="288" rx="13" ry="19" fill="#212149"/>
    <ellipse cx="128" cy="288" rx="13" ry="19" fill="#212149"/>
    <rect x="98" y="300" width="6" height="24" rx="3" fill="#212149"/>
    <circle cx="46" cy="316" r="8" fill="#86cfe8" opacity="0.8"/>
    <circle cx="156" cy="316" r="8" fill="#86cfe8" opacity="0.8"/>
  </g>
  <!-- Yellow buddy (dot) -->
  <g filter="url(#jkshadow)">
    <rect x="196" y="272" width="92" height="92" rx="26" fill="#fad306"/>
    <circle cx="226" cy="308" r="6.5" fill="#212149"/>
    <circle cx="262" cy="308" r="6.5" fill="#212149"/>
    <circle cx="244" cy="330" r="4.5" fill="#f24150"/>
  </g>
</svg>
